<?xml version="1.0" encoding="utf-8"?>
<!-- Generator: Adobe Illustrator 24.1.2, SVG Export Plug-In . SVG Version: 6.00 Build 0)  -->
<svg version="1.1" id="Camada_1" xmlns="http://www.w3.org/2000/svg" xmlns:xlink="http://www.w3.org/1999/xlink" x="0px" y="0px"
	 viewBox="0 0 40.8 46.5" style="enable-background:new 0 0 40.8 46.5;" xml:space="preserve">
<style type="text/css">
	.st0{fill:#FFFFFF;}
</style>
<g>
	<path class="st0" d="M7.3,40.7c-0.8-0.1-1.5,0-2.2-0.2c-2.8-0.5-5-3-5.1-5.9c0-2.5,0-4.9,0-7.4C0,24,2.4,21.4,5.5,21
		c0.3,0,0.5,0,0.6,0c-0.1-1.3-0.3-2.6-0.2-3.8C6,9.1,11.6,2.2,19.4,0.4c9.5-2.2,19,3.9,21,13.4c2,9.7-4.5,19.2-14.3,20.8
		c-0.4,0.1-0.8,0.1-1.2,0.1c-0.3,0-0.4,0.1-0.4,0.4c-0.4,3.1-3,5.4-6.1,5.4c-0.6,0-1.2,0-1.8,0c-0.5,0-0.8,0.1-1.1,0.5
		c-1.5,2-3.2,3.7-5.3,5c-0.6,0.4-1.3,0.6-2.1,0.4c-1.3-0.4-1.9-1.6-1.5-2.9C6.8,42.8,7,42,7.2,41.3C7.3,41.1,7.3,40.9,7.3,40.7z
		 M9.5,43.4c0.2-0.2,0.4-0.3,0.5-0.4c1.6-1.2,2.9-2.7,4.1-4.4c0.4-0.5,0.8-0.7,1.4-0.7c0.5,0,0.9,0,1.4,0s0.9,0,1.4,0
		c2.3,0,3.8-1.5,3.8-3.8s0-4.6,0-6.9c0-0.3,0-0.6-0.1-1c-0.4-1.7-1.8-2.8-3.6-2.8c-4,0-8,0-12,0c-0.2,0-0.4,0-0.6,0
		c-1.7,0.2-3.1,1.7-3.1,3.4c0,2.5,0,5.1,0,7.6c0,1.7,1.4,3.2,3.1,3.4c0.9,0.1,1.8,0,2.7,0.1c0.9,0,1.4,0.5,1.4,1.4
		C10,40.8,9.9,42,9.5,43.4z M14.3,10.9c-1.1-0.4-2.2-0.8-3.4-1.2c-0.1,0-0.3,0.1-0.3,0.2c-0.5,1-1,2-1.3,3.1c-0.3,1-0.5,2-0.7,3.1
		c1.8,0,3.5,0,5.2,0C13.9,14.4,14.1,12.7,14.3,10.9z M38.1,18.7c-1.7,0-3.4,0-5,0c-0.2,1.8-0.4,3.5-0.6,5.2c1.2,0.4,2.4,0.8,3.6,1.3
		C37.2,23.2,38,21.1,38.1,18.7z M38.1,16.2c0-0.1,0-0.1,0-0.1c-0.2-2.2-0.9-4.2-2-6.1c-0.1-0.2-0.2-0.2-0.5-0.1c-1,0.4-2,0.7-3,1
		c-0.3,0.1-0.3,0.2-0.3,0.4c0.1,0.7,0.2,1.5,0.3,2.2c0.1,0.9,0.2,1.8,0.3,2.7C34.7,16.2,36.4,16.2,38.1,16.2z M30.5,18.8
		c-2,0-3.9,0-5.8,0c0,1.4,0,2.7,0,4.1c1.7,0.2,3.4,0.4,5.2,0.5C30.1,21.8,30.3,20.3,30.5,18.8z M16.2,16.1c2,0,3.9,0,5.8,0
		c0-1.4,0-2.8,0-4.1c-1.7-0.2-3.4-0.4-5.2-0.6C16.6,13,16.4,14.5,16.2,16.1z M29.9,11.6c-1.8,0.2-3.5,0.4-5.2,0.5c0,1.3,0,2.7,0,4.1
		c1.9,0,3.8,0,5.8,0C30.3,14.6,30.1,13.1,29.9,11.6z M29.1,25.9c-1.5-0.2-3-0.3-4.5-0.5c0,2.3,0,4.4,0,6.6
		C26.3,31.4,28.2,28.9,29.1,25.9z M29.2,9c-1-2.5-2-4.8-4.5-6.2c0,2.3,0,4.4,0,6.6C26.2,9.3,27.6,9.2,29.2,9z M22,9.5
		c0-2.3,0-4.4,0-6.7c-2.4,1.4-3.5,3.7-4.5,6.2C19.1,9.2,20.5,9.3,22,9.5z M22,18.7c-1.9,0-3.8,0-5.7,0c0,0.5,0.1,1,0.1,1.5
		c0.1,0.7,0.1,0.7,0.7,0.6c1.7-0.1,3.3,0.1,4.8,1.1H22C22,20.9,22,19.8,22,18.7z M8.9,21c1.7,0,3.3,0,4.9,0c0-0.7-0.1-1.5-0.1-2.2
		c-1.7,0-3.4,0-5.2,0C8.7,19.5,8.8,20.2,8.9,21z M29.7,4c0.7,1.4,1.3,2.9,2,4.3c0.8-0.3,1.7-0.5,2.6-0.9C33,6,31.5,4.9,29.7,4z
		 M17,4c-1.8,0.9-3.3,2-4.7,3.5c1,0.3,1.8,0.6,2.6,0.8C15.7,6.9,16.3,5.5,17,4z M29.7,30.9c1.7-0.9,3.3-2,4.7-3.5
		c-1-0.3-1.8-0.6-2.6-0.8C31.1,28,30.4,29.4,29.7,30.9z"/>
	<path class="st0" d="M12.4,27c1.6,0,3.2,0,4.8,0c0.5,0,1,0.2,1.2,0.7c0.2,0.4,0.2,0.8-0.1,1.2c-0.3,0.5-0.7,0.6-1.2,0.6
		c-1.9,0-3.8,0-5.8,0c-1.3,0-2.5,0-3.8,0c-1,0-1.7-0.9-1.3-1.8C6.6,27.2,7,27,7.6,27C9.2,27,10.8,27,12.4,27z"/>
	<path class="st0" d="M12.4,31.8c1.6,0,3.2,0,4.8,0c1.1,0,1.7,1,1.2,1.9c-0.3,0.5-0.7,0.7-1.3,0.7c-2.7,0-5.4,0-8.2,0
		c-0.5,0-0.9,0-1.4,0c-0.8,0-1.3-0.6-1.4-1.3c0-0.7,0.5-1.3,1.3-1.3C9.2,31.8,10.8,31.8,12.4,31.8z"/>
</g>
</svg>
