<?xml version="1.0" encoding="utf-8"?>
<!-- Generator: Adobe Illustrator 24.1.2, SVG Export Plug-In . SVG Version: 6.00 Build 0)  -->
<svg version="1.1" id="Camada_1" xmlns="http://www.w3.org/2000/svg" xmlns:xlink="http://www.w3.org/1999/xlink" x="0px" y="0px"
	 viewBox="0 0 495.8 54.8" style="enable-background:new 0 0 495.8 54.8;" xml:space="preserve">
<style type="text/css">
	.st0{fill:#C405D8;}
</style>
<g>
	<g>
		<path class="st0" d="M63.4,39.4c-0.8,0.7-1.3,1.2-1.7,1.6c-3.9,3.9-7.9,7.8-11.8,11.8C49.1,53.6,48.2,54,47,54
			c-6.1,0-12.3,0-18.4,0c-0.2,0-0.4,0-0.6,0c-0.7,0-1.5-0.1-1.6-0.8c-0.1-0.5,0.3-1.1,0.7-1.5c5-5,10-10,15-15
			c6.5-6.5,13-13,19.5-19.6c0.5-0.5,0.9-1.1,1.4-1.8c0.7,0.6,1.1,0.9,1.5,1.3c11.5,11.5,23,23,34.5,34.5c0.6,0.6,1.5,1.1,1.1,2.1
			c-0.4,1-1.4,0.7-2.2,0.8c-6.1,0-12.3,0-18.4,0c-1.1,0-2-0.4-2.8-1.2c-3.9-3.9-7.8-7.8-11.6-11.7C64.4,40.7,64,40.1,63.4,39.4z"/>
		<path class="st0" d="M372.8,21.8c0,3.5,0,6.8,0,10.4c-7.4,0-14.6,0-22.1,0c0,7.3,0,14.3,0,21.6c-4.3,0.3-8.5,0.1-12.9,0.2
			c0-17.8,0-35.4,0-53.1c4.3,0,8.4,0,12.8,0c0,7,0,13.9,0,21C358.2,21.8,365.4,21.8,372.8,21.8z"/>
		<path class="st0" d="M203.8,54.8c0-3.8,0-7.3,0-10.7c0.2-0.1,0.3-0.2,0.4-0.2c6.3-1,9.7-5,11-10.9c0.8-3.7,0.8-7.5,0-11.3
			c-1.3-6.3-4.9-9.7-11.3-10.9c-0.4-1.4-0.5-8.7-0.1-10.8c3.4,0,6.6,0.7,9.7,1.9c8.8,3.5,13.6,10.3,15.1,19.5c0.8,5,0.7,10.1-0.6,15
			c-2.6,9.8-9.3,15.4-19,17.7C207.5,54.5,205.7,54.6,203.8,54.8z"/>
		<path class="st0" d="M202,54.6c-10.7,0.3-20.4-6.3-23.7-16.2c-2.4-7.1-2.4-14.3-0.2-21.4c2.8-8.8,8.9-14,17.8-16.2
			c1.5-0.4,3-0.5,4.4-0.7c0.5-0.1,1,0,1.6,0c0,3.6,0,7.1,0,10.6c-0.2,0.1-0.3,0.2-0.4,0.3c-6.3,1-9.7,4.9-11,10.9
			c-0.8,3.9-0.8,7.8,0.1,11.7c1.4,5.7,4.8,9.5,10.8,10.5c0.1,0,0.3,0.1,0.4,0.1c0.1,0,0.1,0.1,0.2,0.2C202,47.6,202,51,202,54.6z"/>
		<path class="st0" d="M438.1,0.9c5.3,0,10.3,0,15.4,0c0.3,0.5,0.7,1,1.1,1.5c5.9,8.4,11.7,16.9,17.6,25.3c0.7,1,1.1,2,1.1,3.2
			c0,7,0,14,0,21c0,0.6,0,1.2,0,2c-4.3,0.1-8.4,0.1-12.7,0c0-0.8-0.1-1.5-0.1-2.2c0-5.6,0-11.2,0-16.9c0-1.4-0.3-2.6-1.2-3.8
			c-6.7-9.4-13.3-18.8-19.9-28.2C439,2.2,438.6,1.6,438.1,0.9z"/>
		<path class="st0" d="M401.5,35.5c0-3.4,0-6.7,0-10.2c0.6,0,1.1-0.1,1.7-0.1c3.1,0,6.1,0.1,9.2-0.1c1.4-0.1,2.9-0.3,4.2-0.9
			c2.6-1.1,3.9-3.2,3.9-6c0-2.8-1.4-4.9-3.9-6c-1.1-0.5-2.4-0.8-3.6-0.8c-3.1-0.1-6.1-0.1-9.2-0.1c-0.7,0-1.4,0-2.3,0
			c0-3.5,0-6.9,0-10.2c0.2-0.1,0.3-0.2,0.4-0.2c6,0,12-0.5,18,0.8c4.5,1,8.3,3,11.1,6.8c6.3,9,2.3,21.6-8.1,25.4
			c-2.8,1-5.7,1.6-8.6,1.7C410.1,35.5,405.9,35.5,401.5,35.5z"/>
		<path class="st0" d="M386.9,0.8c4.2,0,8.4,0,12.6,0c0.4,1.4,0.6,49.3,0.2,53c-4.2,0-8.4,0-12.6,0C386.6,52.4,386.5,4,386.9,0.8z"
			/>
		<path class="st0" d="M132.2,0.8c4.3,0,8.4,0,12.7,0c0,17.6,0,35.2,0,52.8c-1.3,0.4-10.5,0.5-12.7,0.1
			C132.2,36.1,132.2,18.6,132.2,0.8z"/>
		<path class="st0" d="M47.9,26.4c-0.9,0.1-1.4,0.1-2,0.1c-6.7,0-13.5,0-20.2,0c-1.2,0-2.1-0.4-2.9-1.2C15.6,18.1,8.4,10.9,1.2,3.6
			C1,3.5,0.8,3.3,0.7,3.1C0.4,2.6,0.1,2,0.1,1.5C0.2,0.7,1,0.8,1.7,0.8c6.5,0,13.1,0,19.6,0c1.1,0,1.7,0.6,2.3,1.2
			c4.3,4.4,8.7,8.7,13,13c3.2,3.2,6.5,6.5,9.7,9.7C46.8,25.2,47.3,25.6,47.9,26.4z"/>
		<path class="st0" d="M78.5,28.2c3.3,0,6.1,0,8.9,0c4.5,0,9,0,13.5,0c1,0,1.8,0.2,2.6,1c7.3,7.4,14.7,14.7,22,22
			c0.1,0.1,0.2,0.2,0.3,0.3c0.3,0.6,0.8,1.2,0.7,1.7c-0.1,0.9-1,0.8-1.8,0.8c-5.4,0-10.7-0.2-16.1,0.1c-3.2,0.2-5.4-0.9-7.7-3.2
			c-6.9-7.2-14.1-14.2-21.1-21.2C79.5,29.3,79.2,28.9,78.5,28.2z"/>
		<path class="st0" d="M78.7,25.7c0.5-0.3,1.1-0.6,1.5-1c7.5-7.5,15.1-15,22.6-22.6c1-1,2-1.4,3.4-1.4c5.9,0.1,11.9,0,17.8,0
			c0.5,0,1.1,0,1.6,0.1c0.9,0.2,1.3,1,0.8,1.8c-0.2,0.4-0.6,0.7-0.9,1c-7.3,7.3-14.5,14.5-21.8,21.8c-0.8,0.8-1.6,1.2-2.7,1.2
			c-6.8,0-13.6,0-20.4,0c-0.5,0-1-0.1-1.5-0.1C78.9,26.2,78.8,25.9,78.7,25.7z"/>
		<path class="st0" d="M47.9,28.8c-0.5,0.4-1.1,0.8-1.5,1.2c-7.6,7.5-15.1,15-22.6,22.6c-1,1-2,1.4-3.4,1.4c-5.9-0.1-11.8,0-17.7,0
			c-0.1,0-0.3,0-0.4,0c-0.8,0-1.8,0.2-2.2-0.8c-0.3-0.9,0.5-1.4,1-2c7.3-7.4,14.7-14.7,22-22.1c0.6-0.6,1.3-1,2.2-1
			c7.1,0,14.3,0,21.4,0c0.3,0,0.6,0.1,0.9,0.1C47.7,28.4,47.8,28.6,47.9,28.8z"/>
		<path class="st0" d="M248.9,12.9c4.3,0,8.4,0,12.5,0c0.4,1.4,0.6,37.1,0.2,41c-4.2,0-8.4,0-12.7,0
			C248.9,40.2,248.9,26.7,248.9,12.9z"/>
		<path class="st0" d="M312.3,53.8c-4.3,0-8.5,0-12.7,0c0-13.6,0-27.1,0-40.6c1.4-0.4,10.3-0.5,12.7-0.1
			C312.3,26.6,312.3,40.1,312.3,53.8z"/>
		<path class="st0" d="M278,11.2c-15.2,0-30.2,0-45.2,0c-0.5-1.4-0.6-8.2-0.1-10.3c15,0,30.1,0,45.3,0C278,4.3,278,7.6,278,11.2z"/>
		<path class="st0" d="M283.2,11.1c0-3.5,0-6.8,0-10.3c15.2,0,30.3,0,45.5,0c0,3.4,0,6.8,0,10.3C313.5,11.1,298.4,11.1,283.2,11.1z"
			/>
		<path class="st0" d="M61.9,14.2c-3.9,4-7.8,8-11.7,12c-0.4-0.4-0.8-0.7-1.2-1.1c-7.1-7.1-14.2-14.2-21.3-21.3
			c-0.6-0.6-1.6-1.2-1.2-2.3c0.4-1,1.5-0.7,2.3-0.7c6.1,0,12.3,0,18.4,0c0.9,0,1.6,0.1,2.3,0.8c4.1,4.1,8.2,8.2,12.3,12.4
			C61.8,14,61.9,14.2,61.9,14.2z"/>
		<path class="st0" d="M64.7,14.1c3.3-3.3,7-6.7,10.3-10.4c2.1-2.3,4.2-3.2,7.3-3c5,0.3,10.1,0.1,15.1,0.1c0.5,0,0.9-0.1,1.4,0
			c0.5,0.1,1.1,0.4,1.2,0.7c0.2,0.4-0.1,0.9-0.3,1.4c-0.1,0.2-0.3,0.4-0.5,0.6C91.8,10.7,84.5,18,77.2,25.3
			c-0.3,0.3-0.6,0.5-0.8,0.7C72.5,22.1,68.7,18.2,64.7,14.1z"/>
		<path class="st0" d="M495.8,0.7c-7.2,9.3-14.1,18.2-21.2,27.4c-2.5-3.5-4.8-6.8-7.2-10.2c1.9-2.5,3.7-4.9,5.5-7.3
			c2.2-2.9,4.4-5.9,6.6-8.8c0.4-0.6,0.8-1.1,1.7-1.1C485.9,0.8,490.6,0.7,495.8,0.7z"/>
		<path class="st0" d="M411.4,37.3c4.6-0.2,8.7-0.8,12.8-2.3c2.1,6.3,4.2,12.4,6.3,18.5c-1.4,0.5-10.2,0.7-14.1,0.3
			C414.8,48.4,413.1,43,411.4,37.3z"/>
		<path class="st0" d="M169.1,43.7c0,3.4,0,6.7,0,9.9c-1.4,0.4-20.1,0.5-22.3,0.1c0-0.6-0.1-1.1-0.1-1.7c0-2.7,0-5.5,0-8.3
			C154.2,43.7,161.5,43.7,169.1,43.7z"/>
		<path class="st0" d="M374.1,11.1c-7.3,0-14.4,0-21.7,0c0-3.4,0-6.8,0-10.1c1.4-0.4,17.8-0.5,21.5-0.2
			C374.4,2.2,374.5,7.9,374.1,11.1z"/>
		<path class="st0" d="M374.3,43.7c0,3.4,0,6.7,0,10.1c-7.3,0-14.5,0-21.8,0c0-3.4,0-6.7,0-10C353.9,43.5,370.5,43.3,374.3,43.7z"/>
	</g>
</g>
<g>
</g>
<g>
</g>
<g>
</g>
<g>
</g>
<g>
</g>
<g>
</g>
<g>
</g>
<g>
</g>
<g>
</g>
<g>
</g>
<g>
</g>
<g>
</g>
<g>
</g>
<g>
</g>
<g>
</g>
</svg>
