<?xml version="1.0" encoding="utf-8"?>
<!-- Generator: Adobe Illustrator 24.1.2, SVG Export Plug-In . SVG Version: 6.00 Build 0)  -->
<svg version="1.1" id="Camada_1" xmlns="http://www.w3.org/2000/svg" xmlns:xlink="http://www.w3.org/1999/xlink" x="0px" y="0px"
	 viewBox="0 0 263 29.1" style="enable-background:new 0 0 263 29.1;" xml:space="preserve">
<style type="text/css">
	.st0{fill:#00002B;}
</style>
<g>
	<g>
		<path class="st0" d="M33.6,20.9c-0.4,0.4-0.7,0.6-0.9,0.9c-2.1,2.1-4.2,4.2-6.2,6.3c-0.4,0.5-0.9,0.7-1.6,0.7c-3.3,0-6.5,0-9.8,0
			c-0.1,0-0.2,0-0.3,0c-0.4,0-0.8,0-0.8-0.4c0-0.2,0.2-0.6,0.4-0.8c2.6-2.7,5.3-5.3,7.9-7.9c3.5-3.5,6.9-6.9,10.4-10.4
			c0.3-0.3,0.5-0.6,0.7-1c0.4,0.3,0.6,0.5,0.8,0.7c6.1,6.1,12.2,12.2,18.3,18.3c0.3,0.3,0.8,0.6,0.6,1.1c-0.2,0.5-0.8,0.4-1.2,0.4
			c-3.3,0-6.5,0-9.8,0c-0.6,0-1-0.2-1.5-0.6c-2-2.1-4.1-4.1-6.2-6.2C34.2,21.6,34,21.3,33.6,20.9z"/>
		<path class="st0" d="M197.8,11.6c0,1.9,0,3.6,0,5.5c-3.9,0-7.8,0-11.7,0c0,3.9,0,7.6,0,11.4c-2.3,0.2-4.5,0-6.8,0.1
			c0-9.4,0-18.8,0-28.2c2.3,0,4.5,0,6.8,0c0,3.7,0,7.4,0,11.1C190,11.6,193.9,11.6,197.8,11.6z"/>
		<path class="st0" d="M108.1,29.1c0-2,0-3.9,0-5.7c0.1-0.1,0.2-0.1,0.2-0.1c3.3-0.5,5.2-2.6,5.9-5.8c0.4-2,0.4-4,0-6
			c-0.7-3.3-2.6-5.2-6-5.8C108,5,108,1.1,108.2,0c1.8,0,3.5,0.4,5.1,1c4.7,1.9,7.2,5.4,8,10.3c0.4,2.7,0.4,5.3-0.3,7.9
			c-1.4,5.2-4.9,8.2-10.1,9.4C110.1,28.9,109.1,29,108.1,29.1z"/>
		<path class="st0" d="M107.2,29c-5.7,0.1-10.8-3.4-12.6-8.6c-1.3-3.8-1.3-7.6-0.1-11.3c1.5-4.7,4.7-7.4,9.4-8.6
			c0.8-0.2,1.6-0.3,2.4-0.4c0.3,0,0.5,0,0.9,0c0,1.9,0,3.8,0,5.6c-0.1,0.1-0.2,0.1-0.2,0.1c-3.3,0.5-5.2,2.6-5.9,5.8
			c-0.5,2.1-0.4,4.1,0.1,6.2c0.7,3,2.5,5,5.7,5.6c0.1,0,0.1,0,0.2,0.1c0,0,0.1,0,0.1,0.1C107.2,25.2,107.2,27.1,107.2,29z"/>
		<path class="st0" d="M232.4,0.5c2.8,0,5.5,0,8.2,0c0.2,0.2,0.4,0.5,0.6,0.8c3.1,4.5,6.2,8.9,9.3,13.4c0.4,0.5,0.6,1.1,0.6,1.7
			c0,3.7,0,7.4,0,11.1c0,0.3,0,0.6,0,1.1c-2.3,0.1-4.5,0-6.8,0c0-0.4-0.1-0.8-0.1-1.2c0-3,0-6,0-8.9c0-0.8-0.2-1.4-0.6-2
			c-3.5-5-7-10-10.5-15C232.9,1.2,232.7,0.9,232.4,0.5z"/>
		<path class="st0" d="M213,18.8c0-1.8,0-3.6,0-5.4c0.3,0,0.6-0.1,0.9-0.1c1.6,0,3.3,0,4.9,0c0.7,0,1.5-0.2,2.2-0.5
			c1.4-0.6,2.1-1.7,2.1-3.2c0-1.5-0.7-2.6-2.1-3.2c-0.6-0.3-1.3-0.4-1.9-0.4c-1.6-0.1-3.3,0-4.9-0.1c-0.4,0-0.8,0-1.2,0
			c0-1.9,0-3.7,0-5.4c0.1,0,0.1-0.1,0.2-0.1c3.2,0,6.4-0.3,9.5,0.4c2.4,0.5,4.4,1.6,5.9,3.6c3.4,4.8,1.2,11.5-4.3,13.5
			c-1.5,0.5-3,0.8-4.6,0.9C217.6,18.8,215.4,18.8,213,18.8z"/>
		<path class="st0" d="M205.3,0.4c2.3,0,4.5,0,6.7,0c0.2,0.8,0.3,26.2,0.1,28.1c-2.2,0-4.5,0-6.7,0C205.1,27.8,205,2.1,205.3,0.4z"
			/>
		<path class="st0" d="M70.1,0.4c2.3,0,4.5,0,6.7,0c0,9.4,0,18.7,0,28c-0.7,0.2-5.6,0.3-6.7,0C70.1,19.2,70.1,9.9,70.1,0.4z"/>
		<path class="st0" d="M25.4,14c-0.5,0-0.7,0.1-1,0.1c-3.6,0-7.1,0-10.7,0c-0.6,0-1.1-0.2-1.6-0.6C8.3,9.6,4.5,5.8,0.6,1.9
			C0.5,1.8,0.4,1.8,0.4,1.6C0.2,1.4,0,1.1,0.1,0.8c0.1-0.4,0.5-0.4,0.8-0.4c3.5,0,6.9,0,10.4,0c0.6,0,0.9,0.3,1.2,0.7
			c2.3,2.3,4.6,4.6,6.9,6.9c1.7,1.7,3.4,3.4,5.1,5.2C24.8,13.3,25.1,13.6,25.4,14z"/>
		<path class="st0" d="M41.6,14.9c1.8,0,3.2,0,4.7,0c2.4,0,4.8,0,7.2,0c0.6,0,1,0.1,1.4,0.5c3.9,3.9,7.8,7.8,11.7,11.7
			c0,0,0.1,0.1,0.1,0.1c0.1,0.3,0.4,0.6,0.4,0.9c-0.1,0.5-0.6,0.4-0.9,0.4c-2.8,0-5.7-0.1-8.5,0c-1.7,0.1-2.9-0.5-4.1-1.7
			c-3.7-3.8-7.5-7.5-11.2-11.3C42.2,15.5,42,15.3,41.6,14.9z"/>
		<path class="st0" d="M41.7,13.7c0.3-0.2,0.6-0.3,0.8-0.5c4-4,8-8,12-12c0.5-0.5,1.1-0.8,1.8-0.8c3.2,0,6.3,0,9.5,0
			c0.3,0,0.6,0,0.8,0c0.5,0.1,0.7,0.5,0.4,0.9c-0.1,0.2-0.3,0.4-0.5,0.5C62.7,5.7,58.8,9.6,55,13.5c-0.4,0.4-0.8,0.6-1.5,0.6
			c-3.6,0-7.2,0-10.8,0c-0.3,0-0.5,0-0.8-0.1C41.9,13.9,41.8,13.8,41.7,13.7z"/>
		<path class="st0" d="M25.4,15.3c-0.3,0.2-0.6,0.4-0.8,0.6c-4,4-8,8-12,12c-0.5,0.5-1.1,0.8-1.8,0.8c-3.1,0-6.2,0-9.4,0
			c-0.1,0-0.1,0-0.2,0c-0.4,0-1,0.1-1.2-0.4c-0.2-0.5,0.2-0.8,0.5-1c3.9-3.9,7.8-7.8,11.7-11.7c0.3-0.3,0.7-0.5,1.2-0.5
			c3.8,0,7.6,0,11.3,0c0.2,0,0.3,0,0.5,0C25.3,15.1,25.4,15.2,25.4,15.3z"/>
		<path class="st0" d="M132.1,6.9c2.3,0,4.5,0,6.6,0c0.2,0.7,0.3,19.7,0.1,21.7c-2.2,0-4.4,0-6.7,0C132.1,21.3,132.1,14.2,132.1,6.9
			z"/>
		<path class="st0" d="M165.7,28.6c-2.3,0-4.5,0-6.7,0c0-7.2,0-14.4,0-21.6c0.7-0.2,5.5-0.3,6.7-0.1
			C165.7,14.1,165.7,21.3,165.7,28.6z"/>
		<path class="st0" d="M147.5,5.9c-8.1,0-16,0-24,0c-0.2-0.7-0.3-4.4-0.1-5.5c8,0,16,0,24,0C147.5,2.3,147.5,4,147.5,5.9z"/>
		<path class="st0" d="M150.2,5.9c0-1.9,0-3.6,0-5.4c8.1,0,16.1,0,24.1,0c0,1.8,0,3.6,0,5.4C166.3,5.9,158.3,5.9,150.2,5.9z"/>
		<path class="st0" d="M32.8,7.5c-2.1,2.1-4.1,4.2-6.2,6.4c-0.2-0.2-0.4-0.4-0.7-0.6C22.2,9.5,18.4,5.7,14.6,2
			c-0.3-0.3-0.9-0.6-0.6-1.2c0.2-0.5,0.8-0.4,1.2-0.4c3.3,0,6.5,0,9.8,0c0.5,0,0.9,0.1,1.2,0.4c2.2,2.2,4.4,4.4,6.5,6.6
			C32.8,7.4,32.8,7.5,32.8,7.5z"/>
		<path class="st0" d="M34.3,7.5C36.1,5.7,38,3.9,39.8,2c1.1-1.2,2.2-1.7,3.9-1.6c2.7,0.1,5.3,0,8,0c0.2,0,0.5,0,0.7,0
			c0.2,0.1,0.6,0.2,0.7,0.4c0.1,0.2-0.1,0.5-0.2,0.7c0,0.1-0.2,0.2-0.3,0.3c-3.9,3.9-7.7,7.7-11.6,11.6c-0.1,0.1-0.3,0.3-0.4,0.4
			C38.5,11.7,36.4,9.7,34.3,7.5z"/>
		<path class="st0" d="M263,0.4c-3.8,4.9-7.5,9.7-11.2,14.5c-1.3-1.9-2.6-3.6-3.8-5.4c1-1.3,1.9-2.6,2.9-3.9
			c1.2-1.6,2.3-3.1,3.5-4.7c0.2-0.3,0.4-0.6,0.9-0.6C257.8,0.4,260.3,0.4,263,0.4z"/>
		<path class="st0" d="M218.2,19.8c2.4-0.1,4.6-0.4,6.8-1.2c1.1,3.3,2.2,6.6,3.4,9.8c-0.7,0.3-5.4,0.4-7.5,0.1
			C220.1,25.7,219.2,22.8,218.2,19.8z"/>
		<path class="st0" d="M89.7,23.2c0,1.8,0,3.5,0,5.3c-0.8,0.2-10.7,0.3-11.8,0.1c0-0.3,0-0.6,0-0.9c0-1.4,0-2.9,0-4.4
			C81.8,23.2,85.7,23.2,89.7,23.2z"/>
		<path class="st0" d="M198.5,5.9c-3.9,0-7.7,0-11.5,0c0-1.8,0-3.6,0-5.3c0.8-0.2,9.4-0.3,11.4-0.1C198.6,1.1,198.7,4.2,198.5,5.9z"
			/>
		<path class="st0" d="M198.6,23.2c0,1.8,0,3.6,0,5.4c-3.9,0-7.7,0-11.6,0c0-1.8,0-3.5,0-5.3C187.7,23.1,196.6,23,198.6,23.2z"/>
	</g>
</g>
<g>
</g>
<g>
</g>
<g>
</g>
<g>
</g>
<g>
</g>
<g>
</g>
<g>
</g>
<g>
</g>
<g>
</g>
<g>
</g>
<g>
</g>
<g>
</g>
<g>
</g>
<g>
</g>
<g>
</g>
</svg>
