<?xml version="1.0" encoding="utf-8"?>
<!-- Generator: Adobe Illustrator 24.1.2, SVG Export Plug-In . SVG Version: 6.00 Build 0)  -->
<svg version="1.2" baseProfile="tiny" id="Camada_1"
	 xmlns="http://www.w3.org/2000/svg" xmlns:xlink="http://www.w3.org/1999/xlink" x="0px" y="0px" viewBox="0 0 95.62 40.25"
	 overflow="visible" xml:space="preserve">
<g>
	<path fill="#00002B" d="M47.75,29.3c-0.63,0.65-1.25,1.29-1.88,1.93c-2.85,2.86-5.71,5.71-8.56,8.57c-0.3,0.3-0.62,0.45-1.05,0.45
		c-5.09-0.01-10.19,0-15.28-0.01c-0.76,0-1.17-0.37-1.07-0.99c0.03-0.19,0.14-0.4,0.28-0.54c5.83-5.82,11.66-11.63,17.49-17.45
		c3.31-3.31,6.62-6.62,9.94-9.93c0.05-0.05,0.11-0.1,0.2-0.19c0.8,0.81,1.57,1.61,2.36,2.4c4.73,4.73,9.47,9.47,14.2,14.2
		c3.67,3.67,7.35,7.33,11.03,10.99c0.27,0.27,0.34,0.58,0.23,0.92c-0.11,0.35-0.38,0.54-0.75,0.58c-0.12,0.01-0.25,0.01-0.37,0.01
		c-5.04,0-10.09,0-15.13,0.01c-0.47,0-0.82-0.14-1.15-0.48c-3.4-3.42-6.81-6.82-10.22-10.23C47.95,29.48,47.87,29.42,47.75,29.3z"/>
	<path fill="#00002B" d="M59.19,19.42c0.85-0.84,1.69-1.67,2.54-2.51c5.49-5.49,10.98-10.97,16.46-16.47C78.5,0.13,78.82,0,79.25,0
		c5.07,0.01,10.13,0.01,15.2,0.01c0.2,0,0.41-0.01,0.59,0.05c0.62,0.2,0.78,0.96,0.3,1.45c-0.64,0.67-1.31,1.32-1.97,1.98
		c-5.23,5.23-10.47,10.47-15.7,15.7c-0.23,0.23-0.45,0.33-0.78,0.33c-5.76-0.01-11.52-0.01-17.29-0.01c-0.12,0-0.24,0-0.36,0
		C59.23,19.48,59.21,19.45,59.19,19.42z"/>
	<path fill="#00002B" d="M36.4,20.84c-1.28,1.28-2.57,2.56-3.85,3.84c-5.03,5.01-10.07,10.02-15.09,15.05
		c-0.37,0.37-0.75,0.53-1.27,0.53c-4.93-0.01-9.86-0.01-14.79-0.01c-0.12,0-0.25,0-0.37,0c-0.43,0.01-0.79-0.13-0.96-0.56
		c-0.17-0.42,0-0.76,0.31-1.07c4.47-4.47,8.94-8.94,13.41-13.41c1.41-1.4,2.81-2.81,4.21-4.22c0.18-0.18,0.36-0.25,0.62-0.25
		c5.81,0.01,11.62,0,17.44,0c0.11,0,0.21,0,0.32,0C36.38,20.78,36.39,20.81,36.4,20.84z"/>
	<path fill="#00002B" d="M36.46,19.5c-0.2,0.01-0.31,0.02-0.42,0.02c-5.8,0-11.6,0-17.4,0c-0.25,0-0.44-0.06-0.62-0.25
		C12.15,13.39,6.26,7.5,0.38,1.62C-0.04,1.2-0.11,0.74,0.17,0.36c0.21-0.29,0.51-0.35,0.85-0.35c2.01,0.01,4.02,0,6.04,0
		c3.12,0,6.23,0,9.35-0.01c0.4,0,0.7,0.13,0.99,0.41c6.24,6.25,12.48,12.49,18.73,18.73C36.22,19.24,36.31,19.34,36.46,19.5z"/>
	<path fill="#00002B" d="M59.25,20.75c0.13,0,0.26,0,0.39,0c5.77,0,11.55,0,17.32-0.01c0.28,0,0.48,0.08,0.68,0.28
		c5.86,5.87,11.73,11.73,17.6,17.6c0.3,0.3,0.49,0.63,0.31,1.06c-0.18,0.45-0.55,0.56-1,0.56c-5.12,0-10.23,0-15.35,0
		c-0.42,0-0.72-0.16-1.01-0.45c-6.06-6.07-12.13-12.14-18.2-18.2c-0.26-0.26-0.54-0.5-0.8-0.75C59.21,20.82,59.23,20.78,59.25,20.75
		z"/>
	<path fill="#00002B" d="M57.58,19.44c-3.01-3.08-5.95-6.09-8.93-9.14c0.24-0.24,0.57-0.58,0.9-0.91c3.08-3.07,6.15-6.14,9.24-9.21
		c0.1-0.1,0.28-0.17,0.42-0.17c5.18-0.01,10.36-0.01,15.54-0.01c0.42,0,0.74,0.15,0.89,0.54c0.14,0.38,0.04,0.72-0.25,1.02
		c-1.8,1.79-3.59,3.58-5.38,5.37c-4.01,4.01-8.03,8.03-12.04,12.04C57.85,19.1,57.75,19.23,57.58,19.44z"/>
	<path fill="#00002B" d="M46.92,10.31c-2.97,3.03-5.92,6.05-8.9,9.1c-0.77-0.78-1.48-1.51-2.2-2.22
		C30.65,12.02,25.49,6.86,20.33,1.69c-0.17-0.17-0.35-0.38-0.41-0.6c-0.16-0.58,0.23-1.06,0.84-1.08c0.58-0.01,1.17,0,1.75,0
		c4.51,0,9.02,0.01,13.52-0.01c0.42,0,0.7,0.12,1,0.42c3.2,3.21,6.41,6.41,9.62,9.61C46.76,10.14,46.87,10.26,46.92,10.31z"/>
</g>
</svg>
