<?xml version="1.0" encoding="utf-8"?>
<!-- Generator: Adobe Illustrator 24.1.2, SVG Export Plug-In . SVG Version: 6.00 Build 0)  -->
<svg version="1.1" id="Camada_1" xmlns="http://www.w3.org/2000/svg" xmlns:xlink="http://www.w3.org/1999/xlink" x="0px" y="0px"
	 viewBox="0 0 846.4 93.6" style="enable-background:new 0 0 846.4 93.6;" xml:space="preserve">
<style type="text/css">
	.st0{fill:#FFFFFF;}
</style>
<g>
	<path class="st0" d="M108.2,67.2c-1.3,1.3-2.2,2-2.9,2.8c-6.7,6.7-13.4,13.4-20.1,20.1c-1.4,1.5-2.9,2.1-5,2.1
		c-10.5-0.1-21,0-31.4,0c-0.3,0-0.7,0-1,0c-1.1,0-2.5-0.1-2.7-1.4c-0.1-0.8,0.6-1.9,1.2-2.5c8.5-8.6,17-17,25.5-25.6
		C82.9,51.6,94,40.4,105.1,29.3c0.9-0.9,1.5-2,2.3-3.1c1.2,1.1,1.9,1.6,2.5,2.2c19.6,19.6,39.3,39.3,58.9,58.9c1,1,2.6,1.8,1.8,3.6
		c-0.7,1.7-2.4,1.3-3.8,1.3c-10.5,0-21,0-31.4,0c-1.9,0-3.4-0.6-4.7-2c-6.6-6.7-13.2-13.3-19.8-19.9C110,69.4,109.3,68.4,108.2,67.2
		z"/>
	<path class="st0" d="M636.5,37.3c0,6,0,11.7,0,17.7c-12.5,0-25,0-37.7,0c0,12.4,0,24.4,0,36.8c-7.4,0.5-14.6,0.1-22,0.3
		c0-30.4,0-60.4,0-90.6c7.3,0,14.3,0,21.8,0c0,11.9,0,23.7,0,35.8C611.4,37.3,623.8,37.3,636.5,37.3z"/>
	<path class="st0" d="M347.9,93.6c0-6.5,0-12.4,0-18.2c0.4-0.2,0.5-0.3,0.8-0.4c10.8-1.7,16.6-8.5,18.8-18.7
		c1.4-6.4,1.4-12.9,0-19.3c-2.3-10.7-8.4-16.6-19.2-18.7c-0.7-2.4-0.8-14.9-0.1-18.4c5.7-0.1,11.2,1.2,16.5,3.3
		c15,6,23.2,17.5,25.8,33.2c1.4,8.6,1.2,17.2-1,25.6c-4.5,16.8-15.9,26.3-32.4,30.3C354.2,93,351.1,93.2,347.9,93.6z"/>
	<path class="st0" d="M344.8,93.2c-18.3,0.5-34.8-10.8-40.4-27.7c-4.1-12.1-4.2-24.3-0.3-36.5c4.7-15,15.3-23.9,30.4-27.7
		c2.5-0.6,5-0.9,7.6-1.3c0.8-0.1,1.7,0,2.8,0c0,6.2,0,12.2,0,18c-0.3,0.2-0.5,0.4-0.7,0.4c-10.8,1.7-16.6,8.4-18.8,18.6
		c-1.5,6.6-1.4,13.3,0.2,19.9c2.4,9.8,8.1,16.2,18.4,17.9c0.2,0,0.4,0.1,0.6,0.2c0.1,0,0.2,0.1,0.4,0.3
		C344.8,81.2,344.8,87.1,344.8,93.2z"/>
	<path class="st0" d="M747.9,1.5c9,0,17.5,0,26.3,0c0.6,0.8,1.2,1.7,1.9,2.6c10,14.4,20,28.8,30.1,43.1c1.2,1.7,1.8,3.4,1.8,5.5
		c-0.1,11.9,0,23.9,0,35.8c0,1,0,2,0,3.4c-7.3,0.2-14.3,0.1-21.7,0c-0.1-1.4-0.2-2.6-0.2-3.8c0-9.6-0.1-19.2,0-28.8
		c0-2.5-0.6-4.5-2-6.5c-11.4-16-22.6-32.1-33.9-48.2C749.4,3.8,748.8,2.8,747.9,1.5z"/>
	<path class="st0" d="M685.4,60.5c0-5.8,0-11.4,0-17.4c1-0.1,2-0.2,2.9-0.2c5.2,0,10.5,0.1,15.7-0.1c2.4-0.1,4.9-0.5,7.1-1.5
		c4.4-1.9,6.7-5.5,6.7-10.3c0-4.8-2.3-8.4-6.7-10.3c-1.9-0.8-4.1-1.3-6.1-1.4c-5.2-0.2-10.5-0.1-15.7-0.2c-1.2,0-2.4,0-3.9,0
		c0-6,0-11.8,0-17.4c0.3-0.2,0.4-0.4,0.6-0.4c10.2,0,20.5-0.9,30.7,1.3c7.7,1.6,14.3,5.1,18.9,11.7c10.8,15.4,4,36.9-13.7,43.3
		c-4.8,1.7-9.7,2.7-14.7,2.8C700.1,60.6,693,60.5,685.4,60.5z"/>
	<path class="st0" d="M660.5,1.4c7.3,0,14.4,0,21.5,0c0.7,2.4,1,84.2,0.3,90.4c-7.2,0-14.4,0-21.6,0C660,89.5,659.7,6.8,660.5,1.4z"
		/>
	<path class="st0" d="M225.7,1.4c7.4,0,14.4,0,21.6,0c0,30.1,0,60.1,0,90.1c-2.3,0.8-18,0.9-21.6,0.1
		C225.7,61.7,225.7,31.7,225.7,1.4z"/>
	<path class="st0" d="M81.8,45c-1.5,0.1-2.4,0.2-3.4,0.2c-11.5,0-23,0-34.5,0.1c-2.1,0-3.5-0.6-5-2.1C26.7,30.8,14.4,18.5,2.1,6.2
		c-0.3-0.3-0.7-0.6-0.9-1C0.7,4.4,0.1,3.5,0.2,2.6c0.2-1.4,1.6-1.4,2.7-1.4c11.2,0,22.3,0,33.5,0c1.8,0,2.9,1,4,2.1
		c7.4,7.4,14.8,14.8,22.3,22.3c5.5,5.5,11.1,11,16.6,16.6C79.9,43,80.7,43.8,81.8,45z"/>
	<path class="st0" d="M134,48.1c5.6,0,10.4,0,15.2,0c7.7,0,15.4,0,23.1,0c1.8,0,3.1,0.4,4.4,1.7c12.5,12.6,25,25.1,37.6,37.6
		c0.2,0.2,0.4,0.3,0.5,0.5c0.4,0.9,1.3,2,1.1,2.8c-0.3,1.5-1.8,1.4-3,1.4c-9.1,0-18.3-0.3-27.4,0.1c-5.5,0.3-9.3-1.5-13.1-5.5
		c-11.8-12.3-24-24.2-36.1-36.3C135.7,50,135.1,49.3,134,48.1z"/>
	<path class="st0" d="M134.3,43.9c0.8-0.6,1.8-1,2.5-1.7c12.9-12.8,25.8-25.7,38.6-38.6c1.7-1.7,3.4-2.4,5.9-2.4
		c10.2,0.1,20.3,0.1,30.5,0.1c0.9,0,1.8-0.1,2.7,0.1c1.6,0.3,2.2,1.7,1.3,3c-0.4,0.6-1,1.2-1.6,1.7c-12.4,12.4-24.8,24.8-37.1,37.2
		c-1.4,1.4-2.7,2-4.7,2c-11.6-0.1-23.2,0-34.8,0c-0.9,0-1.7-0.1-2.6-0.2C134.7,44.7,134.5,44.3,134.3,43.9z"/>
	<path class="st0" d="M81.8,49.1c-0.9,0.7-1.9,1.3-2.6,2.1C66.3,64,53.4,76.9,40.6,89.8c-1.7,1.7-3.5,2.4-5.9,2.4
		c-10-0.1-20.1,0-30.1,0c-0.2,0-0.4,0-0.7,0c-1.4-0.1-3.1,0.3-3.8-1.4c-0.6-1.6,0.8-2.4,1.7-3.3C14.4,74.8,27,62.3,39.5,49.7
		c1.1-1.1,2.2-1.7,3.8-1.7c12.2,0.1,24.3,0,36.5,0c0.5,0,1,0.1,1.6,0.2C81.5,48.5,81.7,48.8,81.8,49.1z"/>
	<path class="st0" d="M425,22.1c7.3,0,14.3,0,21.3,0c0.7,2.3,1,63.4,0.3,69.9c-7.1,0.1-14.3,0-21.6,0C425,68.6,425,45.5,425,22.1z"
		/>
	<path class="st0" d="M533,91.9c-7.3,0-14.4,0-21.7,0c0-23.2,0-46.3,0-69.3c2.4-0.7,17.6-0.8,21.7-0.2C533,45.4,533,68.4,533,91.9z"
		/>
	<path class="st0" d="M474.6,19.1c-25.9,0-51.5,0-77.1,0c-0.8-2.4-0.9-14.1-0.2-17.7c25.7,0,51.4,0,77.3,0
		C474.6,7.3,474.6,13,474.6,19.1z"/>
	<path class="st0" d="M483.4,19c0-6,0-11.7,0-17.5c25.9,0,51.6,0,77.6,0c0,5.8,0,11.6,0,17.5C535.1,19,509.4,19,483.4,19z"/>
	<path class="st0" d="M105.6,24.2c-6.7,6.8-13.3,13.6-20,20.5c-0.7-0.6-1.4-1.2-2.1-1.9C71.3,30.6,59.2,18.5,47.1,6.3
		c-1-1.1-2.8-2-2-3.8c0.7-1.7,2.5-1.2,3.9-1.2c10.5,0,21,0,31.5,0c1.5,0,2.8,0.2,3.9,1.4c7,7.1,14,14.1,21,21.1
		C105.5,24,105.7,24.3,105.6,24.2z"/>
	<path class="st0" d="M110.4,24.1c5.7-5.7,11.9-11.4,17.6-17.7c3.5-3.9,7.2-5.5,12.5-5.2c8.6,0.4,17.2,0.1,25.8,0.1
		c0.8,0,1.6-0.1,2.3,0.1c0.8,0.2,1.9,0.6,2.1,1.2c0.3,0.6-0.3,1.6-0.6,2.4c-0.2,0.4-0.6,0.7-0.9,1c-12.5,12.5-24.9,24.9-37.4,37.4
		c-0.5,0.5-1,0.9-1.4,1.2C123.8,37.7,117.2,31.1,110.4,24.1z"/>
	<path class="st0" d="M846.4,1.3c-12.3,15.9-24.1,31.1-36.2,46.8c-4.2-6-8.2-11.7-12.3-17.4c3.2-4.3,6.3-8.4,9.3-12.5
		c3.7-5,7.5-10,11.2-15c0.7-1,1.4-1.9,2.9-1.9C829.4,1.3,837.4,1.3,846.4,1.3z"/>
	<path class="st0" d="M702.2,63.7c7.8-0.3,14.8-1.3,21.9-4c3.7,10.7,7.2,21.2,10.8,31.6c-2.4,0.9-17.4,1.2-24,0.4
		C708.1,82.7,705.2,73.4,702.2,63.7z"/>
	<path class="st0" d="M288.6,74.5c0,5.8,0,11.4,0,16.9c-2.4,0.8-34.3,0.9-38.1,0.2c0-0.9-0.1-1.9-0.1-2.9c0-4.7,0-9.3,0-14.2
		C263.2,74.5,275.7,74.5,288.6,74.5z"/>
	<path class="st0" d="M638.7,19c-12.4,0-24.7,0-37,0c0-5.9,0-11.5,0-17.2c2.5-0.7,30.4-0.9,36.7-0.4C639,3.7,639.2,13.5,638.7,19z"
		/>
	<path class="st0" d="M639,74.6c0,5.8,0,11.5,0,17.3c-12.4,0-24.8,0-37.3,0c0-5.8,0-11.4,0-17C604.1,74.2,632.5,73.9,639,74.6z"/>
</g>
<g>
</g>
<g>
</g>
<g>
</g>
<g>
</g>
<g>
</g>
<g>
</g>
<g>
</g>
<g>
</g>
<g>
</g>
<g>
</g>
<g>
</g>
<g>
</g>
<g>
</g>
<g>
</g>
<g>
</g>
</svg>
