<?xml version="1.0" encoding="utf-8"?>
<!-- Generator: Adobe Illustrator 24.1.2, SVG Export Plug-In . SVG Version: 6.00 Build 0)  -->
<svg version="1.1" id="Camada_1" xmlns="http://www.w3.org/2000/svg" xmlns:xlink="http://www.w3.org/1999/xlink" x="0px" y="0px"
	 viewBox="0 0 45.4 45.4" style="enable-background:new 0 0 45.4 45.4;" xml:space="preserve">
<style type="text/css">
	.st0{fill:#84E4A4;}
	.st1{fill:#FFFFFF;}
</style>
<circle class="st0" cx="22.7" cy="22.7" r="22.7"/>
<g>
	<g>
		<path class="st1" d="M22.7,11.6c3.6,0,4.1,0,5.5,0.1c1.3,0.1,2,0.3,2.5,0.5c0.6,0.2,1.1,0.5,1.6,1c0.5,0.5,0.8,0.9,1,1.6
			c0.2,0.5,0.4,1.2,0.5,2.5c0.1,1.4,0.1,1.9,0.1,5.5c0,3.6,0,4.1-0.1,5.5c-0.1,1.3-0.3,2-0.5,2.5c-0.2,0.6-0.5,1.1-1,1.6
			c-0.5,0.5-0.9,0.8-1.6,1c-0.5,0.2-1.2,0.4-2.5,0.5c-1.4,0.1-1.9,0.1-5.5,0.1c-3.6,0-4.1,0-5.5-0.1c-1.3-0.1-2-0.3-2.5-0.5
			c-0.6-0.2-1.1-0.5-1.6-1c-0.5-0.5-0.8-0.9-1-1.6c-0.2-0.5-0.4-1.2-0.5-2.5c-0.1-1.4-0.1-1.9-0.1-5.5c0-3.6,0-4.1,0.1-5.5
			c0.1-1.3,0.3-2,0.5-2.5c0.2-0.6,0.5-1.1,1-1.6c0.5-0.5,0.9-0.8,1.6-1c0.5-0.2,1.2-0.4,2.5-0.5C18.7,11.6,19.1,11.6,22.7,11.6
			 M22.7,9.1c-3.7,0-4.2,0-5.6,0.1c-1.4,0.1-2.4,0.3-3.3,0.6c-0.9,0.3-1.7,0.8-2.4,1.6c-0.8,0.8-1.2,1.5-1.6,2.4
			c-0.3,0.9-0.6,1.9-0.6,3.3c-0.1,1.4-0.1,1.9-0.1,5.6c0,3.7,0,4.2,0.1,5.6c0.1,1.4,0.3,2.4,0.6,3.3c0.3,0.9,0.8,1.7,1.6,2.4
			c0.8,0.8,1.5,1.2,2.4,1.6c0.9,0.3,1.9,0.6,3.3,0.6c1.4,0.1,1.9,0.1,5.6,0.1c3.7,0,4.2,0,5.6-0.1c1.4-0.1,2.4-0.3,3.3-0.6
			c0.9-0.3,1.7-0.8,2.4-1.6c0.8-0.8,1.2-1.5,1.6-2.4c0.3-0.9,0.6-1.9,0.6-3.3c0.1-1.4,0.1-1.9,0.1-5.6c0-3.7,0-4.2-0.1-5.6
			c-0.1-1.4-0.3-2.4-0.6-3.3c-0.3-0.9-0.8-1.7-1.6-2.4c-0.8-0.8-1.5-1.2-2.4-1.6c-0.9-0.3-1.9-0.6-3.3-0.6
			C26.9,9.1,26.4,9.1,22.7,9.1"/>
		<path class="st1" d="M22.7,15.7c-3.9,0-7,3.1-7,7s3.1,7,7,7c3.9,0,7-3.1,7-7S26.6,15.7,22.7,15.7 M22.7,27.2c-2.5,0-4.5-2-4.5-4.5
			c0-2.5,2-4.5,4.5-4.5c2.5,0,4.5,2,4.5,4.5C27.3,25.2,25.2,27.2,22.7,27.2"/>
		<path class="st1" d="M31.6,15.4c0,0.9-0.7,1.6-1.6,1.6c-0.9,0-1.6-0.7-1.6-1.6c0-0.9,0.7-1.6,1.6-1.6
			C30.9,13.8,31.6,14.5,31.6,15.4"/>
	</g>
</g>
<circle class="st0" cx="22.7" cy="22.7" r="22.7"/>
<path class="st1" d="M22.9,33.1c-2.1,0-4.2,0-6.3-0.1c-1.6-0.1-3.2-0.2-4.7-0.4c-2-0.3-3.2-1.6-3.5-3.6C8,26.6,8,24.1,8.1,21.6
	c0-1.3,0.1-2.6,0.2-3.8c0.1-0.7,0.1-1.4,0.3-2.1c0.4-1.7,1.6-2.6,3.3-2.9c1.5-0.2,3.1-0.4,4.6-0.4c3.4-0.1,6.8-0.1,10.2-0.1
	c2.3,0,4.6,0.2,6.8,0.3c0.5,0,1,0.1,1.5,0.3c1.6,0.5,2.4,1.6,2.6,3.2c0.2,1.4,0.3,2.9,0.4,4.4c0.2,2.6,0.1,5.2-0.3,7.8
	c-0.1,0.7-0.2,1.4-0.5,2c-0.6,1.4-1.8,2.2-3.3,2.3c-1.8,0.2-3.7,0.3-5.5,0.4C26.6,33.1,24.8,33.1,22.9,33.1
	C22.9,33.1,22.9,33.1,22.9,33.1z M20.2,18c0,3.1,0,6.2,0,9.3c2.5-1.6,5-3.1,7.6-4.7C25.2,21.1,22.7,19.6,20.2,18z"/>
<circle class="st0" cx="22.7" cy="22.7" r="22.7"/>
<path class="st1" d="M17.3,36.4c11.1,0,17.1-9.2,17.1-17.1c0-0.3,0-0.5,0-0.8c1.2-0.8,2.2-1.9,3-3.1c-1.1,0.5-2.2,0.8-3.5,0.9
	c1.2-0.7,2.2-1.9,2.6-3.3c-1.2,0.7-2.4,1.2-3.8,1.5c-1.1-1.2-2.7-1.9-4.4-1.9c-3.3,0-6,2.7-6,6c0,0.5,0.1,0.9,0.2,1.4
	c-5-0.3-9.4-2.6-12.4-6.3c-0.5,0.9-0.8,1.9-0.8,3c0,2.1,1.1,3.9,2.7,5c-1,0-1.9-0.3-2.7-0.8c0,0,0,0.1,0,0.1c0,2.9,2.1,5.3,4.8,5.9
	c-0.5,0.1-1,0.2-1.6,0.2c-0.4,0-0.8,0-1.1-0.1c0.8,2.4,3,4.1,5.6,4.2c-2.1,1.6-4.7,2.6-7.5,2.6c-0.5,0-1,0-1.4-0.1
	C10.7,35.4,13.9,36.4,17.3,36.4"/>
<g>
</g>
<g>
</g>
<g>
</g>
<g>
</g>
<g>
</g>
<g>
</g>
<g>
</g>
<g>
</g>
<g>
</g>
<g>
</g>
<g>
</g>
<g>
</g>
<g>
</g>
<g>
</g>
<g>
</g>
</svg>
