<?xml version="1.0" encoding="utf-8"?>
<!-- Generator: Adobe Illustrator 24.1.2, SVG Export Plug-In . SVG Version: 6.00 Build 0)  -->
<svg version="1.1" id="Camada_1" xmlns="http://www.w3.org/2000/svg" xmlns:xlink="http://www.w3.org/1999/xlink" x="0px" y="0px"
	 viewBox="0 0 45.4 45.4" style="enable-background:new 0 0 45.4 45.4;" xml:space="preserve">
<style type="text/css">
	.st0{fill:#84E4A4;}
	.st1{fill:#FFFFFF;}
</style>
<circle class="st0" cx="22.7" cy="22.7" r="22.7"/>
<path class="st1" d="M34.5,12.4c-1.4,6.8-2.9,13.7-4.3,20.5c-0.3,1.6-1.3,1.9-2.6,1c-2-1.5-4-2.9-6-4.4c0,0-0.1,0-0.1-0.1
	c-1.5,1.1-2.5,2.7-4.2,3.6c-0.1,0-0.1-0.1-0.2-0.1c0-0.5,0.1-1.1,0.1-1.6c0.1-1.5,0.2-2.9,0.3-4.4c0-0.6,0.4-0.8,0.8-1.1
	c3.7-3.3,7.3-6.6,11-9.8c0.2-0.1,0.4-0.2,0.7-0.4c-0.6-0.5-1-0.3-1.3-0.1c-1.6,1-3.1,2-4.7,3c-3.2,2-6.3,4-9.5,5.9
	c-0.2,0.1-0.6,0.2-0.9,0.1c-2-0.6-3.9-1.2-5.8-1.8c-0.4-0.1-0.8-0.5-1.1-0.8c0,0,0-0.1,0-0.1c0.3-0.6,0.8-0.9,1.4-1.1
	c1.4-0.5,2.8-1.1,4.1-1.6c6.7-2.6,13.5-5.2,20.2-7.8c1.4-0.5,1.9-0.3,2.4,1C34.5,12.3,34.5,12.3,34.5,12.4z"/>
<g>
</g>
<g>
</g>
<g>
</g>
<g>
</g>
<g>
</g>
<g>
</g>
<g>
</g>
<g>
</g>
<g>
</g>
<g>
</g>
<g>
</g>
<g>
</g>
<g>
</g>
<g>
</g>
<g>
</g>
</svg>
