<?xml version="1.0" encoding="utf-8"?>
<!-- Generator: Adobe Illustrator 24.1.2, SVG Export Plug-In . SVG Version: 6.00 Build 0)  -->
<svg version="1.1" id="Camada_1" xmlns="http://www.w3.org/2000/svg" xmlns:xlink="http://www.w3.org/1999/xlink" x="0px" y="0px"
	 viewBox="0 0 27.2 27.2" style="enable-background:new 0 0 27.2 27.2;" xml:space="preserve">
<style type="text/css">
	.st0{fill:#5BD6BF;}
	.st1{fill:#FFFFFF;}
</style>
<circle class="st0" cx="13.6" cy="13.6" r="13.6"/>
<g>
	<g>
		<path class="st1" d="M13.6,6.9c2.2,0,2.4,0,3.3,0c0.8,0,1.2,0.2,1.5,0.3c0.4,0.1,0.7,0.3,0.9,0.6c0.3,0.3,0.5,0.6,0.6,0.9
			c0.1,0.3,0.2,0.7,0.3,1.5c0,0.9,0,1.1,0,3.3s0,2.4,0,3.3c0,0.8-0.2,1.2-0.3,1.5c-0.1,0.4-0.3,0.7-0.6,0.9
			c-0.3,0.3-0.6,0.5-0.9,0.6c-0.3,0.1-0.7,0.2-1.5,0.3c-0.9,0-1.1,0-3.3,0s-2.4,0-3.3,0c-0.8,0-1.2-0.2-1.5-0.3
			c-0.4-0.1-0.7-0.3-0.9-0.6c-0.3-0.3-0.5-0.6-0.6-0.9C7.1,18.1,7,17.7,7,16.9c0-0.9,0-1.1,0-3.3s0-2.4,0-3.3c0-0.8,0.2-1.2,0.3-1.5
			c0.1-0.4,0.3-0.7,0.6-0.9c0.3-0.3,0.6-0.5,0.9-0.6C9.1,7.1,9.5,7,10.3,7C11.2,6.9,11.4,6.9,13.6,6.9 M13.6,5.5c-2.2,0-2.5,0-3.3,0
			c-0.9,0-1.5,0.2-2,0.4c-0.5,0.2-1,0.5-1.4,0.9C6.4,7.3,6.1,7.7,5.9,8.3c-0.2,0.5-0.3,1.1-0.4,2c0,0.9,0,1.1,0,3.3s0,2.5,0,3.3
			c0,0.9,0.2,1.5,0.4,2c0.2,0.5,0.5,1,0.9,1.4c0.4,0.5,0.9,0.7,1.4,0.9c0.5,0.2,1.1,0.3,2,0.4c0.9,0,1.1,0,3.3,0s2.5,0,3.3,0
			c0.9,0,1.5-0.2,2-0.4c0.5-0.2,1-0.5,1.4-0.9c0.5-0.5,0.7-0.9,0.9-1.4c0.2-0.5,0.3-1.1,0.4-2c0-0.9,0-1.1,0-3.3s0-2.5,0-3.3
			c0-0.9-0.2-1.5-0.4-2c-0.2-0.5-0.5-1-0.9-1.4c-0.5-0.5-0.9-0.7-1.4-0.9c-0.5-0.2-1.1-0.3-2-0.4C16.1,5.5,15.8,5.5,13.6,5.5"/>
		<path class="st1" d="M13.6,9.4c-2.3,0-4.2,1.9-4.2,4.2s1.9,4.2,4.2,4.2c2.3,0,4.2-1.9,4.2-4.2S15.9,9.4,13.6,9.4 M13.6,16.3
			c-1.5,0-2.7-1.2-2.7-2.7s1.2-2.7,2.7-2.7s2.7,1.2,2.7,2.7S15.1,16.3,13.6,16.3"/>
		<path class="st1" d="M18.9,9.3c0,0.5-0.4,1-1,1c-0.5,0-1-0.4-1-1c0-0.5,0.4-1,1-1S18.9,8.7,18.9,9.3"/>
	</g>
</g>
</svg>
