<?xml version="1.0" encoding="utf-8"?>
<!-- Generator: Adobe Illustrator 24.1.2, SVG Export Plug-In . SVG Version: 6.00 Build 0)  -->
<svg version="1.1" id="Camada_1" xmlns="http://www.w3.org/2000/svg" xmlns:xlink="http://www.w3.org/1999/xlink" x="0px" y="0px"
	 viewBox="0 0 27.2 27.2" style="enable-background:new 0 0 27.2 27.2;" xml:space="preserve">
<style type="text/css">
	.st0{fill:#5BD6BF;}
	.st1{fill:#FFFFFF;}
</style>
<g>
	<circle class="st0" cx="13.6" cy="13.6" r="13.6"/>
	<path class="st1" d="M10.3,21.8c6.6,0,10.2-5.5,10.2-10.2c0-0.2,0-0.3,0-0.5c0.7-0.5,1.3-1.1,1.8-1.9c-0.6,0.3-1.3,0.5-2.1,0.6
		c0.7-0.4,1.3-1.1,1.6-2c-0.7,0.4-1.5,0.7-2.3,0.9C18.9,7.9,18,7.5,17,7.5c-2,0-3.6,1.6-3.6,3.6c0,0.3,0,0.6,0.1,0.8
		c-3-0.1-5.6-1.6-7.4-3.8C5.7,8.7,5.6,9.3,5.6,10c0,1.3,0.6,2.4,1.6,3c-0.6,0-1.1-0.2-1.6-0.4c0,0,0,0,0,0c0,1.7,1.2,3.2,2.9,3.5
		c-0.3,0.1-0.6,0.1-1,0.1c-0.2,0-0.5,0-0.7-0.1c0.5,1.4,1.8,2.5,3.4,2.5c-1.2,1-2.8,1.5-4.5,1.5c-0.3,0-0.6,0-0.9,0
		C6.4,21.2,8.3,21.8,10.3,21.8"/>
</g>
</svg>
