<?xml version="1.0" encoding="utf-8"?>
<!-- Generator: Adobe Illustrator 24.1.2, SVG Export Plug-In . SVG Version: 6.00 Build 0)  -->
<svg version="1.1" id="Camada_1" xmlns="http://www.w3.org/2000/svg" xmlns:xlink="http://www.w3.org/1999/xlink" x="0px" y="0px"
	 viewBox="0 0 45.4 45.4" style="enable-background:new 0 0 45.4 45.4;" xml:space="preserve">
<style type="text/css">
	.st0{fill:#84E4A4;}
	.st1{fill:#FFFFFF;}
</style>
<circle class="st0" cx="22.7" cy="22.7" r="22.7"/>
<g>
	<g>
		<path class="st1" d="M22.7,11.6c3.6,0,4.1,0,5.5,0.1c1.3,0.1,2,0.3,2.5,0.5c0.6,0.2,1.1,0.5,1.6,1c0.5,0.5,0.8,0.9,1,1.6
			c0.2,0.5,0.4,1.2,0.5,2.5c0.1,1.4,0.1,1.9,0.1,5.5c0,3.6,0,4.1-0.1,5.5c-0.1,1.3-0.3,2-0.5,2.5c-0.2,0.6-0.5,1.1-1,1.6
			c-0.5,0.5-0.9,0.8-1.6,1c-0.5,0.2-1.2,0.4-2.5,0.5c-1.4,0.1-1.9,0.1-5.5,0.1c-3.6,0-4.1,0-5.5-0.1c-1.3-0.1-2-0.3-2.5-0.5
			c-0.6-0.2-1.1-0.5-1.6-1c-0.5-0.5-0.8-0.9-1-1.6c-0.2-0.5-0.4-1.2-0.5-2.5c-0.1-1.4-0.1-1.9-0.1-5.5c0-3.6,0-4.1,0.1-5.5
			c0.1-1.3,0.3-2,0.5-2.5c0.2-0.6,0.5-1.1,1-1.6c0.5-0.5,0.9-0.8,1.6-1c0.5-0.2,1.2-0.4,2.5-0.5C18.7,11.6,19.1,11.6,22.7,11.6
			 M22.7,9.1c-3.7,0-4.2,0-5.6,0.1c-1.4,0.1-2.4,0.3-3.3,0.6c-0.9,0.3-1.7,0.8-2.4,1.6c-0.8,0.8-1.2,1.5-1.6,2.4
			c-0.3,0.9-0.6,1.9-0.6,3.3c-0.1,1.4-0.1,1.9-0.1,5.6c0,3.7,0,4.2,0.1,5.6c0.1,1.4,0.3,2.4,0.6,3.3c0.3,0.9,0.8,1.7,1.6,2.4
			c0.8,0.8,1.5,1.2,2.4,1.6c0.9,0.3,1.9,0.6,3.3,0.6c1.4,0.1,1.9,0.1,5.6,0.1c3.7,0,4.2,0,5.6-0.1c1.4-0.1,2.4-0.3,3.3-0.6
			c0.9-0.3,1.7-0.8,2.4-1.6c0.8-0.8,1.2-1.5,1.6-2.4c0.3-0.9,0.6-1.9,0.6-3.3c0.1-1.4,0.1-1.9,0.1-5.6c0-3.7,0-4.2-0.1-5.6
			c-0.1-1.4-0.3-2.4-0.6-3.3c-0.3-0.9-0.8-1.7-1.6-2.4c-0.8-0.8-1.5-1.2-2.4-1.6c-0.9-0.3-1.9-0.6-3.3-0.6
			C26.9,9.1,26.4,9.1,22.7,9.1"/>
		<path class="st1" d="M22.7,15.7c-3.9,0-7,3.1-7,7s3.1,7,7,7c3.9,0,7-3.1,7-7S26.6,15.7,22.7,15.7 M22.7,27.2c-2.5,0-4.5-2-4.5-4.5
			c0-2.5,2-4.5,4.5-4.5c2.5,0,4.5,2,4.5,4.5C27.3,25.2,25.2,27.2,22.7,27.2"/>
		<path class="st1" d="M31.6,15.4c0,0.9-0.7,1.6-1.6,1.6c-0.9,0-1.6-0.7-1.6-1.6c0-0.9,0.7-1.6,1.6-1.6
			C30.9,13.8,31.6,14.5,31.6,15.4"/>
	</g>
</g>
<g>
</g>
<g>
</g>
<g>
</g>
<g>
</g>
<g>
</g>
<g>
</g>
<g>
</g>
<g>
</g>
<g>
</g>
<g>
</g>
<g>
</g>
<g>
</g>
<g>
</g>
<g>
</g>
<g>
</g>
</svg>
