<?xml version="1.0" encoding="utf-8"?>
<!-- Generator: Adobe Illustrator 24.1.2, SVG Export Plug-In . SVG Version: 6.00 Build 0)  -->
<svg version="1.1" id="Camada_1" xmlns="http://www.w3.org/2000/svg" xmlns:xlink="http://www.w3.org/1999/xlink" x="0px" y="0px"
	 viewBox="0 0 27.2 27.2" style="enable-background:new 0 0 27.2 27.2;" xml:space="preserve">
<style type="text/css">
	.st0{fill:#5BD6BF;}
	.st1{fill:#FFFFFF;}
</style>
<g>
	<circle class="st0" cx="13.6" cy="13.6" r="13.6"/>
	<path class="st1" d="M13.7,19.8c-1.3,0-2.5,0-3.8-0.1c-0.9,0-1.9-0.1-2.8-0.2c-1.2-0.2-1.9-1-2.1-2.2c-0.2-1.5-0.3-2.9-0.2-4.4
		c0-0.8,0.1-1.5,0.1-2.3C5,10.2,5,9.8,5.1,9.4c0.3-1,1-1.6,1.9-1.7C8,7.5,8.9,7.4,9.8,7.4c2,0,4.1-0.1,6.1,0c1.4,0,2.7,0.1,4.1,0.2
		c0.3,0,0.6,0.1,0.9,0.2c0.9,0.3,1.5,1,1.6,1.9c0.1,0.9,0.2,1.7,0.3,2.6c0.1,1.6,0,3.1-0.2,4.7c-0.1,0.4-0.1,0.8-0.3,1.2
		c-0.4,0.8-1.1,1.3-2,1.4c-1.1,0.1-2.2,0.2-3.3,0.2C15.9,19.8,14.8,19.8,13.7,19.8C13.7,19.8,13.7,19.8,13.7,19.8z M12.1,10.8
		c0,1.9,0,3.7,0,5.6c1.5-0.9,3-1.8,4.5-2.8C15.1,12.6,13.6,11.7,12.1,10.8z"/>
</g>
</svg>
